<svg width="42" height="61" viewBox="0 0 42 61" fill="none" xmlns="http://www.w3.org/2000/svg">
<path d="M21 19L25.7148 33.5106H40.9722L28.6287 42.4787L33.3435 56.9894L21 48.0213L8.65651 56.9894L13.3713 42.4787L1.02781 33.5106H16.2852L21 19Z" fill="#FF6C0C"/>
<path d="M34.5 15L36.1839 20.1824H41.6329L37.2245 23.3853L38.9084 28.5676L34.5 25.3647L30.0916 28.5676L31.7755 23.3853L27.3671 20.1824H32.8161L34.5 15Z" fill="#FF6C0C"/>
<path d="M20.5 0L22.1839 5.18237H27.6329L23.2245 8.38525L24.9084 13.5676L20.5 10.3647L16.0916 13.5676L17.7755 8.38525L13.3671 5.18237H18.8161L20.5 0Z" fill="#FF6C0C"/>
</svg>
