<svg width="85" height="86" viewBox="0 0 85 86" fill="none" xmlns="http://www.w3.org/2000/svg">
<g opacity="0.5" filter="url(#filter0_d_136_46)">
<path d="M64.7111 54.4298L66.1029 51.7722L68.761 53.1643L67.3685 55.8221L64.7111 54.4298ZM43.2021 43.1656L41.8103 45.8232L39.3871 44.5542L40.4276 42.0244L43.2021 43.1656ZM52.8558 19.6956L53.9965 16.9209L56.7716 18.0618L55.6302 20.8367L52.8558 19.6956ZM51.9306 19.3152L49.1561 18.174L50.2971 15.4L53.0714 16.5405L51.9306 19.3152ZM42.3123 42.6996L45.0868 43.8408L43.8351 46.8838L40.9204 45.3572L42.3123 42.6996ZM19.914 30.9681L17.2567 29.5759L18.6488 26.9188L21.306 28.3106L19.914 30.9681ZM19.4498 31.8542L18.0579 34.5117L15.4 33.1196L16.7925 30.4619L19.4498 31.8542ZM41.9302 43.6285L43.3221 40.971L45.7451 42.24L44.7047 44.7697L41.9302 43.6285ZM32.6946 66.0828L31.5538 68.8574L28.7787 67.7165L29.9201 64.9416L32.6946 66.0828ZM33.6197 66.4631L36.3942 67.6043L35.2532 70.3784L32.4789 69.2378L33.6197 66.4631ZM42.82 44.0945L40.0455 42.9533L41.2971 39.9104L44.2118 41.4369L42.82 44.0945ZM64.2469 55.3159L66.9043 56.7081L65.5123 59.365L62.8551 57.9735L64.2469 55.3159ZM64.7111 54.4298L63.3194 57.0875L41.8103 45.8232L43.2021 43.1656L44.5939 40.508L66.1029 51.7722L64.7111 54.4298ZM43.2021 43.1656L40.4276 42.0244L50.0813 18.5544L52.8558 19.6956L55.6302 20.8367L45.9766 44.3068L43.2021 43.1656ZM52.8558 19.6956L51.715 22.4702L50.7899 22.0899L51.9306 19.3152L53.0714 16.5405L53.9965 16.9209L52.8558 19.6956ZM51.9306 19.3152L54.7051 20.4564L45.0868 43.8408L42.3123 42.6996L39.5378 41.5584L49.1561 18.174L51.9306 19.3152ZM42.3123 42.6996L40.9204 45.3572L18.5221 33.6257L19.914 30.9681L21.306 28.3106L43.7042 40.0421L42.3123 42.6996ZM19.914 30.9681L22.5714 32.3604L22.1072 33.2464L19.4498 31.8542L16.7925 30.4619L17.2567 29.5759L19.914 30.9681ZM19.4498 31.8542L20.8417 29.1966L43.3221 40.971L41.9302 43.6285L40.5383 46.2861L18.0579 34.5117L19.4498 31.8542ZM41.9302 43.6285L44.7047 44.7697L35.469 67.2239L32.6946 66.0828L29.9201 64.9416L39.1557 42.4873L41.9302 43.6285ZM32.6946 66.0828L33.8353 63.3081L34.7604 63.6885L33.6197 66.4631L32.4789 69.2378L31.5538 68.8574L32.6946 66.0828ZM33.6197 66.4631L30.8452 65.322L40.0455 42.9533L42.82 44.0945L45.5945 45.2356L36.3942 67.6043L33.6197 66.4631ZM42.82 44.0945L44.2118 41.4369L65.6387 52.6583L64.2469 55.3159L62.8551 57.9735L41.4282 46.7521L42.82 44.0945ZM64.2469 55.3159L61.5896 53.9236L62.0538 53.0376L64.7111 54.4298L67.3685 55.8221L66.9043 56.7081L64.2469 55.3159Z" fill="white"/>
</g>
<defs>
<filter id="filter0_d_136_46" x="-5.72205e-06" y="-3.62396e-05" width="84.161" height="85.7784" filterUnits="userSpaceOnUse" color-interpolation-filters="sRGB">
<feFlood flood-opacity="0" result="BackgroundImageFix"/>
<feColorMatrix in="SourceAlpha" type="matrix" values="0 0 0 0 0 0 0 0 0 0 0 0 0 0 0 0 0 0 127 0" result="hardAlpha"/>
<feOffset/>
<feGaussianBlur stdDeviation="7.7"/>
<feComposite in2="hardAlpha" operator="out"/>
<feColorMatrix type="matrix" values="0 0 0 0 1 0 0 0 0 1 0 0 0 0 1 0 0 0 1 0"/>
<feBlend mode="normal" in2="BackgroundImageFix" result="effect1_dropShadow_136_46"/>
<feBlend mode="normal" in="SourceGraphic" in2="effect1_dropShadow_136_46" result="shape"/>
</filter>
</defs>
</svg>
